<?xml version="1.0" encoding="UTF-8" standalone="no"?>
<!-- Created with Inkscape (http://www.inkscape.org/) -->

<svg
   xmlns:dc="http://purl.org/dc/elements/1.1/"
   xmlns:cc="http://creativecommons.org/ns#"
   xmlns:rdf="http://www.w3.org/1999/02/22-rdf-syntax-ns#"
   xmlns:svg="http://www.w3.org/2000/svg"
   xmlns="http://www.w3.org/2000/svg"
   xmlns:sodipodi="http://sodipodi.sourceforge.net/DTD/sodipodi-0.dtd"
   xmlns:inkscape="http://www.inkscape.org/namespaces/inkscape"
   width="170.48409mm"
   height="42.945183mm"
   viewBox="0 0 170.48408 42.945183"
   version="1.1"
   id="svg8"
   inkscape:version="0.92.3 (d244b95, 2018-08-02)"
   sodipodi:docname="MeT Logo no line.svg">
  <defs
     id="defs2" />
  <sodipodi:namedview
     id="base"
     pagecolor="#ffffff"
     bordercolor="#666666"
     borderopacity="1.0"
     inkscape:pageopacity="0.0"
     inkscape:pageshadow="2"
     inkscape:zoom="1.1449824"
     inkscape:cx="200.75515"
     inkscape:cy="-40.043728"
     inkscape:document-units="mm"
     inkscape:current-layer="layer1"
     showgrid="false"
     inkscape:window-width="1920"
     inkscape:window-height="1056"
     inkscape:window-x="0"
     inkscape:window-y="24"
     inkscape:window-maximized="1"
     showguides="true"
     inkscape:guide-bbox="true"
     fit-margin-top="0"
     fit-margin-left="0"
     fit-margin-right="0"
     fit-margin-bottom="0">
    <sodipodi:guide
       position="121.13439,39.770188"
       orientation="0,1"
       id="guide827"
       inkscape:locked="false" />
    <sodipodi:guide
       position="121.13439,3.1750082"
       orientation="0,1"
       id="guide829"
       inkscape:locked="false" />
  </sodipodi:namedview>
  <metadata
     id="metadata5">
    <rdf:RDF>
      <cc:Work
         rdf:about="">
        <dc:format>image/svg+xml</dc:format>
        <dc:type
           rdf:resource="http://purl.org/dc/dcmitype/StillImage" />
        <dc:title></dc:title>
      </cc:Work>
    </rdf:RDF>
  </metadata>
  <g
     inkscape:label="Layer 1"
     inkscape:groupmode="layer"
     id="layer1"
     transform="translate(-2.9960237,-72.058846)">
    <path
       id="path1136"
       d="M 79.839172,115.00403 V 72.058846 h 11.30267 v 5.37435 h -5.39915 v 32.196484 h 5.34541 v 5.37435 z"
       inkscape:connector-curvature="0"
       style="fill:#53e5e5;fill-rule:nonzero;stroke:none;stroke-width:0.26458332;stroke-linecap:square;stroke-miterlimit:10"
       inkscape:export-xdpi="242"
       inkscape:export-ydpi="242" />
    <path
       id="path1140"
       d="m 173.48011,72.058846 v 42.945184 h -11.24892 v -5.37435 h 5.34541 V 77.433196 h -5.39916 v -5.37435 z"
       inkscape:connector-curvature="0"
       style="fill:#53e5e5;fill-rule:nonzero;stroke:none;stroke-width:0.26458332;stroke-linecap:square;stroke-miterlimit:10"
       inkscape:export-xdpi="242"
       inkscape:export-ydpi="242" />
    <path
       inkscape:connector-curvature="0"
       id="path845"
       style="font-style:normal;font-variant:normal;font-weight:normal;font-stretch:normal;font-size:52.10021973px;line-height:1.25;font-family:'Unica One';-inkscape-font-specification:'Unica One, Normal';font-variant-ligatures:normal;font-variant-caps:normal;font-variant-numeric:normal;font-feature-settings:normal;text-align:start;letter-spacing:0px;word-spacing:0px;writing-mode:lr-tb;text-anchor:start;fill:#ffc95d;fill-opacity:1;stroke:#ffc95d;stroke-width:1.5;stroke-miterlimit:4;stroke-dasharray:none;stroke-opacity:1"
       d="m 107.58762,104.14951 v -2.86552 h 3.64702 v 2.86552 q 0,3.49071 -2.13611,5.41842 -2.13611,1.87561 -6.40833,1.87561 -4.272211,0 -6.460406,-1.87561 -2.188197,-1.92771 -2.188197,-5.41842 V 83.309418 q 0,-3.490715 2.136097,-5.366323 2.136098,-1.927708 6.408306,-1.927708 4.27222,0 6.46043,1.927708 2.18821,1.875608 2.18821,5.366323 v 4.949521 h -3.64702 v -4.949521 q 0,-4.168018 -4.94952,-4.168018 -4.949505,0 -4.949505,4.168018 v 20.840092 q 0,4.16801 4.949505,4.16801 4.94952,0 4.94952,-4.16801 z"
       inkscape:export-xdpi="242"
       inkscape:export-ydpi="242" />
    <path
       inkscape:connector-curvature="0"
       id="path847"
       style="font-style:normal;font-variant:normal;font-weight:normal;font-stretch:normal;font-size:52.10021973px;line-height:1.25;font-family:'Unica One';-inkscape-font-specification:'Unica One, Normal';font-variant-ligatures:normal;font-variant-caps:normal;font-variant-numeric:normal;font-feature-settings:normal;text-align:start;letter-spacing:0px;word-spacing:0px;writing-mode:lr-tb;text-anchor:start;fill:#ffc95d;fill-opacity:1;stroke:#ffc95d;stroke-width:1.56832659;stroke-miterlimit:4;stroke-dasharray:none;stroke-opacity:1"
       d="m 117.3592,75.892119 h 8.22549 q 4.24892,0 6.42786,2.015517 2.2334,2.015518 2.2334,5.610764 v 3.268407 q 0,4.630243 -3.8676,5.937605 4.41235,1.198416 4.41235,6.046552 v 4.902596 q 0,3.64974 -2.17894,5.66525 -2.17893,1.96104 -6.48234,1.96104 h -8.77022 z m 13.61836,27.781441 v -4.902596 q 0,-2.069991 -1.25291,-3.32288 -1.25287,-1.307363 -3.59523,-1.307363 h -4.95709 v 13.890719 h 4.95709 q 4.84814,0 4.84814,-4.35788 z M 130.43283,86.786807 V 83.5184 q 0,-2.06999 -1.25289,-3.213931 -1.2529,-1.143944 -3.59525,-1.143944 h -4.41236 V 91.41705 h 4.41236 q 2.39683,0 3.59525,-1.252889 1.25289,-1.252889 1.25289,-3.377354 z"
       inkscape:export-xdpi="242"
       inkscape:export-ydpi="242" />
    <path
       inkscape:connector-curvature="0"
       id="path849"
       style="font-style:normal;font-variant:normal;font-weight:normal;font-stretch:normal;font-size:52.10021973px;line-height:1.25;font-family:'Unica One';-inkscape-font-specification:'Unica One, Normal';font-variant-ligatures:normal;font-variant-caps:normal;font-variant-numeric:normal;font-feature-settings:normal;text-align:start;letter-spacing:0px;word-spacing:0px;writing-mode:lr-tb;text-anchor:start;fill:#ffc95d;fill-opacity:1;stroke:#ffc95d;stroke-width:1.5;stroke-miterlimit:4;stroke-dasharray:none;stroke-opacity:1"
       d="m 158.10832,110.66203 h -1.56301 l -1.3546,-3.33441 q -1.09411,1.87561 -2.86551,3.02181 -1.77141,1.09411 -3.90752,1.09411 -7.50243,0 -7.50243,-7.29403 v -5.210026 q 0,-7.294031 7.50243,-7.294031 h 6.04362 v -8.544436 q 0,-1.875608 -1.1983,-2.917612 -1.19831,-1.042005 -3.54282,-1.042005 -4.63692,0 -4.63692,3.959617 v 3.073913 h -3.64701 v -2.865512 q 0,-3.490715 2.03191,-5.366323 2.08401,-1.927708 6.25202,-1.927708 4.16802,0 6.25203,1.927708 2.13611,1.875608 2.13611,5.366323 z M 154.4613,94.771466 h -6.04362 q -2.18821,0 -3.02181,1.094105 -0.83361,1.094104 -0.83361,3.073913 v 5.210026 q 0,1.9798 0.83361,3.07391 0.8336,1.0941 3.02181,1.0941 2.18821,0 4.06382,-1.6672 1.8756,-1.71931 1.9798,-3.38652 z"
       inkscape:export-xdpi="242"
       inkscape:export-ydpi="242" />
    <path
       inkscape:connector-curvature="0"
       id="path835"
       style="font-style:normal;font-variant:normal;font-weight:normal;font-stretch:normal;font-size:53.89366913px;line-height:1.25;font-family:'Unica One';-inkscape-font-specification:'Unica One, Normal';font-variant-ligatures:normal;font-variant-caps:normal;font-variant-numeric:normal;font-feature-settings:normal;text-align:start;letter-spacing:0px;word-spacing:0px;writing-mode:lr-tb;text-anchor:start;fill:#ff5d5d;fill-opacity:1;stroke:#ff5d5d;stroke-width:1.5;stroke-miterlimit:4;stroke-dasharray:none;stroke-opacity:1"
       d="M 7.5185805,111.32307 H 3.7460237 V 76.292175 H 9.404859 l 6.143878,23.120384 6.197772,-23.120384 h 5.658835 V 111.32307 H 23.632788 V 82.328266 L 17.327228,105.9337 H 13.82414 L 7.5185805,82.328266 Z"
       inkscape:export-xdpi="242"
       inkscape:export-ydpi="242" />
    <path
       inkscape:connector-curvature="0"
       id="path837"
       style="font-style:normal;font-variant:normal;font-weight:normal;font-stretch:normal;font-size:53.89366913px;line-height:1.25;font-family:'Unica One';-inkscape-font-specification:'Unica One, Normal';font-variant-ligatures:normal;font-variant-caps:normal;font-variant-numeric:normal;font-feature-settings:normal;text-align:start;letter-spacing:0px;word-spacing:0px;writing-mode:lr-tb;text-anchor:start;fill:#ff5d5d;fill-opacity:1;stroke:#ff5d5d;stroke-width:1.44578063;stroke-miterlimit:4;stroke-dasharray:none;stroke-opacity:1"
       d="m 47.720345,104.1278 v -2.857 h 3.636191 v 2.857 q 0,3.48036 -2.129769,5.40235 -2.12977,1.87004 -6.38931,1.87004 -4.25954,0 -6.441256,-1.87004 -2.181716,-1.92199 -2.181716,-5.40235 V 83.34956 q 0,-3.480356 2.129769,-5.350398 2.129771,-1.921987 6.389311,-1.921987 4.25954,0 6.441256,1.921987 2.181715,1.870042 2.181715,5.350398 V 94.777595 H 37.850678 v 9.350205 q 0,4.15565 4.934832,4.15565 4.934835,0 4.934835,-4.15565 z M 37.850678,83.34956 v 8.311298 h 9.869667 V 83.34956 q 0,-4.155649 -4.934835,-4.155649 -4.934832,0 -4.934832,4.155649 z"
       inkscape:export-xdpi="242"
       inkscape:export-ydpi="242" />
    <path
       inkscape:connector-curvature="0"
       id="path839"
       style="font-style:normal;font-variant:normal;font-weight:normal;font-stretch:normal;font-size:53.89366913px;line-height:1.25;font-family:'Unica One';-inkscape-font-specification:'Unica One, Normal';font-variant-ligatures:normal;font-variant-caps:normal;font-variant-numeric:normal;font-feature-settings:normal;text-align:start;letter-spacing:0px;word-spacing:0px;writing-mode:lr-tb;text-anchor:start;fill:#ff5d5d;fill-opacity:1;stroke:#ff5d5d;stroke-width:1.5;stroke-miterlimit:4;stroke-dasharray:none;stroke-opacity:1"
       d="m 74.363087,76.292175 v 3.233621 H 67.35691 V 111.32307 H 63.584353 V 79.525796 h -7.006177 v -3.233621 z"
       inkscape:export-xdpi="242"
       inkscape:export-ydpi="242" />
  </g>
</svg>
